HIERARCHY
ROOT hip
{
  OFFSET 0 0 0
  CHANNELS 6 Xposition Yposition Zposition Zrotation Yrotation Xrotation
  JOINT abdomen
  {
    OFFSET 0 20.6881 -0.73152
    CHANNELS 3 Zrotation Xrotation Yrotation
    JOINT chest
    {
      OFFSET 0 11.7043 -0.48768
      CHANNELS 3 Zrotation Xrotation Yrotation
      JOINT neck
      {
        OFFSET 0 22.1894 -2.19456
        CHANNELS 3 Zrotation Xrotation Yrotation
        JOINT head
        {
          OFFSET -0.24384 7.07133 1.2192
          CHANNELS 3 Zrotation Xrotation Yrotation
          JOINT leftEye
          {
            OFFSET 4.14528 8.04674 8.04672
            CHANNELS 3 Zrotation Xrotation Yrotation
            End Site
            {
              OFFSET 1 0 0
            }
          }
          JOINT rightEye
          {
            OFFSET -3.6576 8.04674 8.04672
            CHANNELS 3 Zrotation Xrotation Yrotation
            End Site
            {
              OFFSET 1 0 0
            }
          }
        }
      }
      JOINT rCollar
      {
        OFFSET -2.68224 19.2634 -4.8768
        CHANNELS 3 Zrotation Xrotation Yrotation
        JOINT rShldr
        {
          OFFSET -8.77824 -1.95073 1.46304
          CHANNELS 3 Zrotation Xrotation Yrotation
          JOINT rForeArm
          {
            OFFSET -28.1742 -1.7115 0.48768
            CHANNELS 3 Zrotation Xrotation Yrotation
            JOINT rHand
            {
              OFFSET -22.5879 0.773209 7.07136
              CHANNELS 3 Zrotation Xrotation Yrotation
              JOINT rThumb1
              {
                OFFSET -1.2192 -0.487915 3.41376
                CHANNELS 3 Zrotation Xrotation Yrotation
                JOINT rThumb2
                {
                  OFFSET -3.37035 -0.52449 3.41376
                  CHANNELS 3 Zrotation Xrotation Yrotation
                  End Site
                  {
                    OFFSET -1.78271 -1.18214 1.43049
                  }
                }
              }
              JOINT rIndex1
              {
                OFFSET -7.75947 0.938293 5.60832
                CHANNELS 3 Zrotation Xrotation Yrotation
                JOINT rIndex2
                {
                  OFFSET -2.54057 -0.884171 1.56538
                  CHANNELS 3 Zrotation Xrotation Yrotation
                  End Site
                  {
                    OFFSET -1.62519 -0.234802 1.16502
                  }
                }
              }
              JOINT rMid1
              {
                OFFSET -8.24714 1.18213 3.41376
                CHANNELS 3 Zrotation Xrotation Yrotation
                JOINT rMid2
                {
                  OFFSET -3.10165 -0.590103 1.0647
                  CHANNELS 3 Zrotation Xrotation Yrotation
                  End Site
                  {
                    OFFSET -2.48547 -0.328903 0.83742
                  }
                }
              }
              JOINT rRing1
              {
                OFFSET -8.82822 0.546677 1.51678
                CHANNELS 3 Zrotation Xrotation Yrotation
                JOINT rRing2
                {
                  OFFSET -2.60934 -0.819778 -0.0198488
                  CHANNELS 3 Zrotation Xrotation Yrotation
                  End Site
                  {
                    OFFSET -2.33842 -0.294052 0.168128
                  }
                }
              }
              JOINT rPinky1
              {
                OFFSET -8.27202 -0.0477905 -0.4584
                CHANNELS 3 Zrotation Xrotation Yrotation
                JOINT rPinky2
                {
                  OFFSET -1.82734 -0.647385 -0.700984
                  CHANNELS 3 Zrotation Xrotation Yrotation
                  End Site
                  {
                    OFFSET -1.69225 -0.51767 -0.607171
                  }
                }
              }
            }
          }
        }
      }
      JOINT lCollar
      {
        OFFSET 2.68224 19.2634 -4.8768
        CHANNELS 3 Zrotation Xrotation Yrotation
        JOINT lShldr
        {
          OFFSET 8.77824 -1.95073 1.46304
          CHANNELS 3 Zrotation Xrotation Yrotation
          JOINT lForeArm
          {
            OFFSET 28.1742 -1.7115 0.48768
            CHANNELS 3 Zrotation Xrotation Yrotation
            JOINT lHand
            {
              OFFSET 22.5879 0.773209 7.07136
              CHANNELS 3 Zrotation Xrotation Yrotation
              JOINT lThumb1
              {
                OFFSET 1.2192 -0.487915 3.41376
                CHANNELS 3 Zrotation Xrotation Yrotation
                JOINT lThumb2
                {
                  OFFSET 3.37035 -0.52449 3.41376
                  CHANNELS 3 Zrotation Xrotation Yrotation
                  End Site
                  {
                    OFFSET 1.78271 -1.18214 1.43049
                  }
                }
              }
              JOINT lIndex1
              {
                OFFSET 7.75947 0.938293 5.60832
                CHANNELS 3 Zrotation Xrotation Yrotation
                JOINT lIndex2
                {
                  OFFSET 2.54057 -0.884171 1.56538
                  CHANNELS 3 Zrotation Xrotation Yrotation
                  End Site
                  {
                    OFFSET 1.62519 -0.234802 1.16502
                  }
                }
              }
              JOINT lMid1
              {
                OFFSET 8.24714 1.18213 3.41376
                CHANNELS 3 Zrotation Xrotation Yrotation
                JOINT lMid2
                {
                  OFFSET 3.10165 -0.590103 1.0647
                  CHANNELS 3 Zrotation Xrotation Yrotation
                  End Site
                  {
                    OFFSET 2.48547 -0.328903 0.83742
                  }
                }
              }
              JOINT lRing1
              {
                OFFSET 8.82822 0.546677 1.51678
                CHANNELS 3 Zrotation Xrotation Yrotation
                JOINT lRing2
                {
                  OFFSET 2.60934 -0.819778 -0.0198488
                  CHANNELS 3 Zrotation Xrotation Yrotation
                  End Site
                  {
                    OFFSET 2.33842 -0.294052 0.168128
                  }
                }
              }
              JOINT lPinky1
              {
                OFFSET 8.27202 -0.0477905 -0.4584
                CHANNELS 3 Zrotation Xrotation Yrotation
                JOINT lPinky2
                {
                  OFFSET 1.82734 -0.647385 -0.700984
                  CHANNELS 3 Zrotation Xrotation Yrotation
                  End Site
                  {
                    OFFSET 1.69225 -0.51767 -0.607171
                  }
                }
              }
            }
          }
        }
      }
    }
  }
  JOINT rButtock
  {
    OFFSET -8.77824 4.35084 1.2192
    CHANNELS 3 Zrotation Xrotation Yrotation
    JOINT rThigh
    {
      OFFSET 0 -1.70687 -2.19456
      CHANNELS 3 Zrotation Xrotation Yrotation
      JOINT rShin
      {
        OFFSET 0 -36.8199 0.73152
        CHANNELS 3 Zrotation Xrotation Yrotation
        JOINT rFoot
        {
          OFFSET 0.73152 -45.1104 -5.12064
          CHANNELS 3 Zrotation Xrotation Yrotation
          End Site
          {
            OFFSET -1.1221 -3.69964 12.103
          }
        }
      }
    }
  }
  JOINT lButtock
  {
    OFFSET 8.77824 4.35084 1.2192
    CHANNELS 3 Zrotation Xrotation Yrotation
    JOINT lThigh
    {
      OFFSET 0 -1.70687 -2.19456
      CHANNELS 3 Zrotation Xrotation Yrotation
      JOINT lShin
      {
        OFFSET 0 -36.8199 0.73152
        CHANNELS 3 Zrotation Xrotation Yrotation
        JOINT lFoot
        {
          OFFSET -0.73152 -45.1104 -5.12064
          CHANNELS 3 Zrotation Xrotation Yrotation
          End Site
          {
            OFFSET 1.1221 -3.69964 12.103
          }
        }
      }
    }
  }
}
MOTION
Frames:	6
Frame Time:	0.00833333
32.9807 76.1009 1.07468 0.0 0.0 0.0 -3.29164 -0.00200211 -0.089713 -0.910499 0.0108254 -0.157567 -5.1617e-14 -1.59028e-15 1.98784e-16 -1.55167e-13 3.18055e-15 3.47873e-16 -0.0 0.0 0.0 -0.0 0.0 0.0 -2.59438e-14 -4.19311e-17 2.48481e-16 -5.4166e-13 -1.11816e-15 7.95139e-16 -9.35312e-12 2.77762e-12 9.22361e-14 -1.07376e-10 -3.00861e-12 8.26944e-14 -2.53227e-10 -5.01802e-13 4.0393e-13 -4.37314e-10 -8.65111e-13 6.91771e-13 -2.53217e-10 -4.97757e-13 3.94389e-13 7.73091 5.47488 0.417314 -2.53224e-10 -5.01236e-13 4.07111e-13 2.90554 0.965183 0.102902 -2.53214e-10 -5.0044e-13 3.98364e-13 10.2786 0.731801 0.0259123 -2.53225e-10 -5.02925e-13 4.0393e-13 2.22167 -0.733487 -0.20892 -2.58413e-14 -4.36783e-17 4.96962e-17 -5.47604e-13 -9.44227e-16 -1.39149e-15 -9.40455e-12 -2.83387e-12 1.17681e-13 -1.07337e-10 2.61148e-12 5.08889e-14 -2.53249e-10 -4.86512e-13 3.78486e-13 -4.37348e-10 -8.46028e-13 6.84614e-13 -2.53256e-10 -4.81854e-13 3.88028e-13 -7.73091 5.47488 -0.417314 -2.5325e-10 -4.85333e-13 3.88028e-13 -2.90554 0.965183 -0.102902 -2.53259e-10 -4.85532e-13 3.88028e-13 -10.2786 0.731801 -0.0259123 -2.53243e-10 -4.87818e-13 3.78486e-13 -2.22167 -0.733487 0.20892 -2.03217e-16 0.0 -3.88251e-19 -2.14027 -1.93291 0.0183631 -0.00781058 -2.07877 -0.06366 -0.356397 4.00069 0.117347 2.03217e-16 0.0 3.88251e-19 -2.88053 -9.6772 0.33896 -0.010022 11.9464 -0.261572 0.458311 -2.28008 -0.00593899
32.8246 69.3031 -6.54229 -1.168 -4.5612 34.9393 -2.31585 -3.53097 -0.674349 -0.66309 -2.30256 -0.217561 0.812054 -3.36373 -0.378286 0.298927 -2.62009 -1.11969 -0.0 0.0 0.0 -0.0 0.0 0.0 -1.55898e-14 1.28758e-13 -1.54268e-14 19.0499 6.77255 9.90039 -26.8514 -24.4556 13.7919 0.0348237 4.14142 0.576559 1.53357e-11 -7.81213e-11 -1.69195e-10 2.58173e-11 -1.41296e-10 -2.95631e-10 1.53405e-11 -7.81235e-11 -1.69209e-10 7.73091 5.47488 0.417314 1.5338e-11 -7.81237e-11 -1.69192e-10 2.90554 0.965183 0.102902 1.53465e-11 -7.81228e-11 -1.69198e-10 10.2786 0.731801 0.0259123 1.53358e-11 -7.81232e-11 -1.69192e-10 2.22167 -0.733487 -0.20892 -1.55218e-14 1.28755e-13 -1.5638e-14 -17.7673 3.97493 -8.901 27.3169 -24.8474 -13.6021 -0.0301352 -3.85252 0.537025 -2.56575e-10 -1.96463e-10 2.46672e-10 -4.46551e-10 -3.33241e-10 4.27001e-10 -2.56582e-10 -1.96462e-10 2.46678e-10 -7.73091 5.47488 -0.417314 -2.56577e-10 -1.96463e-10 2.46677e-10 -2.90554 0.965183 -0.102902 -2.56585e-10 -1.96463e-10 2.46679e-10 -10.2786 0.731801 -0.0259123 -2.5657e-10 -1.96465e-10 2.46669e-10 -2.22167 -0.733487 0.20892 -2.03217e-16 0.0 -3.88251e-19 -1.21938 -24.1519 0.473312 0.0992622 18.5783 0.22455 -0.887398 -2.32418 -3.81786 2.03217e-16 0.0 3.88251e-19 -3.36234 -30.2339 -0.380476 0.0401383 28.5527 -0.498994 0.924154 -6.89522 2.45212
32.8294 69.3043 -6.54805 -1.1523 -4.5423 34.9618 -1.36231 -7.26177 -1.29541 -0.40934 -4.74771 -0.280439 1.64356 -6.92444 -0.758407 0.474027 -5.37006 -2.27669 -0.0 0.0 0.0 -0.0 0.0 0.0 -3.65245e-15 2.82456e-13 -3.02712e-14 36.6363 13.2347 20.8062 -38.4068 -44.9107 37.8835 -0.019917 8.52008 1.19644 3.20761e-10 -1.6242e-10 -3.67096e-10 5.52635e-10 -2.94414e-10 -6.41505e-10 3.20761e-10 -1.62429e-10 -3.67115e-10 7.73091 5.47488 0.417314 3.20763e-10 -1.62426e-10 -3.67092e-10 2.90554 0.965183 0.102902 3.2077e-10 -1.62425e-10 -3.67096e-10 10.2786 0.731801 0.0259123 3.20759e-10 -1.62423e-10 -3.6709e-10 2.22167 -0.733487 -0.20892 -3.62205e-15 2.82452e-13 -3.04948e-14 -35.2153 7.84871 -18.4525 39.0652 -45.7331 -37.8294 0.0171993 -7.91893 1.11215 -2.68139e-10 -4.16731e-10 5.1637e-10 -4.70503e-10 -7.06764e-10 8.93984e-10 -2.68146e-10 -4.16735e-10 5.16373e-10 -7.73091 5.47488 -0.417314 -2.68141e-10 -4.16733e-10 5.16372e-10 -2.90554 0.965183 -0.102902 -2.6815e-10 -4.16733e-10 5.16374e-10 -10.2786 0.731801 -0.0259123 -2.68136e-10 -4.16735e-10 5.16364e-10 -2.22167 -0.733487 0.20892 -2.03217e-16 0.0 -3.88251e-19 0.309666 -47.6349 1.28977 -0.0729286 40.4156 0.663445 -2.3997 -8.93383 -8.06948 2.03217e-16 0.0 3.88251e-19 -4.73255 -51.9546 -1.66928 0.315808 46.1076 -0.910351 1.85536 -11.7416 5.12183
32.8318 69.3056 -6.55384 -1.1445 -4.5417 34.9857 -0.583574 -10.5841 -1.87164 -0.182949 -6.92925 -0.339503 2.30114 -10.0894 -1.1507 0.587288 -7.8482 -3.38733 -0.0 0.0 0.0 -0.0 0.0 0.0 5.11835e-15 3.86357e-13 -4.67773e-14 50.1915 17.8522 31.1448 -31.2579 -50.0216 71.7398 -0.150634 12.4192 1.76651 5.52461e-10 -2.3336e-10 -5.08393e-10 9.52079e-10 -4.22157e-10 -8.88277e-10 5.52456e-10 -2.33375e-10 -5.08417e-10 7.73091 5.47488 0.417314 5.52463e-10 -2.33368e-10 -5.08389e-10 2.90554 0.965183 0.102902 5.52468e-10 -2.33367e-10 -5.08391e-10 10.2786 0.731801 0.0259123 5.52457e-10 -2.33364e-10 -5.08385e-10 2.22167 -0.733487 -0.20892 5.11709e-15 3.86353e-13 -4.70134e-14 -49.6918 10.7723 -27.155 31.2466 -50.9561 -72.6779 0.130032 -11.5535 1.64069 -2.63227e-10 -5.88415e-10 7.39258e-10 -4.64957e-10 -9.98032e-10 1.27963e-09 -2.63234e-10 -5.88422e-10 7.39259e-10 -7.73091 5.47488 -0.417314 -2.63229e-10 -5.88418e-10 7.39256e-10 -2.90554 0.965183 -0.102902 -2.63238e-10 -5.88419e-10 7.3926e-10 -10.2786 0.731801 -0.0259123 -2.63225e-10 -5.8842e-10 7.3925e-10 -2.22167 -0.733487 0.20892 -2.03217e-16 0.0 -3.88251e-19 3.25013 -68.5568 3.44547 -0.79697 59.8839 1.52635 -4.60284 -14.6721 -12.0778 2.03217e-16 0.0 3.88251e-19 -8.5262 -71.278 -5.16064 1.02859 61.7572 -1.69733 3.08246 -16.0093 7.61185
32.8248 69.3226 -6.55785 -1.1751 -4.5084 35.002 -0.0886266 -12.8896 -2.30984 -0.0149963 -8.4518 -0.387414 2.60638 -12.2662 -1.56053 0.746252 -9.6563 -4.35805 -0.0 0.0 0.0 -0.0 0.0 0.0 5.97286e-15 3.65766e-13 -6.74377e-14 58.5503 20.211 38.688 -26.9652 -44.1082 91.6593 -0.289024 15.1242 2.17687 5.99846e-10 -2.70904e-10 -5.08183e-10 1.03309e-09 -4.86463e-10 -8.87291e-10 5.9984e-10 -2.70921e-10 -5.08208e-10 7.73091 5.47488 0.417314 5.99848e-10 -2.70913e-10 -5.08179e-10 2.90554 0.965183 0.102902 5.99853e-10 -2.70912e-10 -5.08179e-10 10.2786 0.731801 0.0259123 5.99841e-10 -2.70907e-10 -5.08173e-10 2.22167 -0.733487 -0.20892 5.95464e-15 3.65761e-13 -6.76862e-14 -59.2414 12.4189 -33.3061 26.6723 -44.8396 -93.1329 0.250657 -14.1121 2.02485 -2.17124e-10 -6.38638e-10 8.45121e-10 -3.85664e-10 -1.08367e-09 1.46194e-09 -2.17131e-10 -6.38646e-10 8.45121e-10 -7.73091 5.47488 -0.417314 -2.17126e-10 -6.38641e-10 8.45118e-10 -2.90554 0.965183 -0.102902 -2.17134e-10 -6.38642e-10 8.45122e-10 -10.2786 0.731801 -0.0259123 -2.17122e-10 -6.38643e-10 8.45112e-10 -2.22167 -0.733487 0.20892 -2.03217e-16 0.0 -3.88251e-19 13.1313 -83.0236 12.7028 -2.54749 73.4323 3.32432 -6.64207 -18.5335 -15.0615 2.03217e-16 0.0 3.88251e-19 -25.8896 -84.4475 -22.196 2.4002 72.6475 -3.0957 4.17014 -18.9384 9.43193
32.823 69.3364 -6.56174 -1.1835 -4.4887 35.0179 0.0810261 -13.7741 -2.53543 0.0752808 -9.05447 -0.418518 2.4549 -13.0617 -1.98651 1.06342 -10.5346 -5.11665 -0.0 0.0 0.0 -0.0 0.0 0.0 -7.38235e-15 1.17773e-13 -9.93349e-14 61.5613 21.0438 41.6826 -27.0158 -40.3637 96.9046 -0.353121 16.1585 2.33787 3.46152e-10 -2.58616e-10 -2.67263e-10 5.93444e-10 -4.54906e-10 -4.64597e-10 3.46146e-10 -2.58631e-10 -2.67286e-10 7.73091 5.47488 0.417314 3.46153e-10 -2.58624e-10 -2.67262e-10 2.90554 0.965183 0.102902 3.46158e-10 -2.58623e-10 -2.67259e-10 10.2786 0.731801 0.0259123 3.46147e-10 -2.58619e-10 -2.67253e-10 2.22167 -0.733487 -0.20892 -7.38641e-15 1.17768e-13 -9.96028e-14 -62.8914 13.0302 -35.6663 26.7335 -41.016 -98.5148 0.30979 -15.1662 2.1866 -8.92213e-11 -4.59076e-10 7.5948e-10 -1.60179e-10 -7.80114e-10 1.31091e-09 -8.92285e-11 -4.59081e-10 7.5948e-10 -7.73091 5.47488 -0.417314 -8.92245e-11 -4.59076e-10 7.59477e-10 -2.90554 0.965183 -0.102902 -8.92302e-11 -4.59079e-10 7.5948e-10 -10.2786 0.731801 -0.0259123 -8.922e-11 -4.59079e-10 7.59469e-10 -2.22167 -0.733487 0.20892 -2.03217e-16 0.0 -3.88251e-19 56.862 -88.0308 56.1734 -4.42247 78.7048 5.20685 -7.55725 -19.9997 -16.2835 2.03217e-16 0.0 3.88251e-19 -97.361 -87.7195 -93.5175 3.57717 76.8852 -4.27753 4.6484 -20.0688 10.1643
